<?xml version="1.0" encoding="UTF-8"?>
<svg id="Layer_1" xmlns="http://www.w3.org/2000/svg" version="1.1" viewBox="0 0 230.7 61.7">
  <!-- Generator: Adobe Illustrator 29.1.0, SVG Export Plug-In . SVG Version: 2.1.0 Build 142)  -->
  <defs>
    <style>
      .st0 {
        fill: #fff;
      }
    </style>
  </defs>
  <path class="st0" d="M21.1,0h10.1v60.9h-10.1v-25.7h-6.1v25.7H4.9V0h10.1v25.4h6.1V0Z"/>
  <path class="st0" d="M51,0h10.2v49c0,3.7-1.2,6.8-3.7,9.1-2.4,2.3-5.6,3.5-9.5,3.5s-7.1-1.2-9.5-3.5-3.7-5.4-3.7-9.1V0h10.1v49c0,1,.3,1.8.8,2.4s1.3.8,2.2.8,1.7-.3,2.2-.8c.5-.6.8-1.4.8-2.4,0,0,0-49,0-49Z"/>
  <path class="st0" d="M87.4,0h10.8v60.9h-8.8V28.1l-5.6,32.9h-4.7l-5.7-33.3v33.3h-8.8V0h11l5.8,34.3L87.4,0Z"/>
  <path class="st0" d="M118.6,61l-.7-9.2h-6.4l-.8,9.2h-10.2L108.5,0h12.8l8,60.9h-10.6ZM112.1,43.6h5l-2.4-29.6-2.6,29.6h0Z"/>
  <path class="st0" d="M149.7,0h8.8v60.9h-8.3l-10-34.8v34.8h-8.8V0h8.3l10,34.7V0Z"/>
  <path class="st0" d="M172.5,0v60.9h-10.1V0h10.1,0Z"/>
  <path class="st0" d="M186.4,61h-10.1V0h20.1v9.4h-10.1v18.3h8.4v9.4h-8.4v23.7h0Z"/>
  <path class="st0" d="M225.7,0l-9,40.5v20.4h-10.1v-20.1L197.6,0h10.3l3.9,24.8L215.7,0h10.1Z"/>
</svg>