<?xml version="1.0" encoding="UTF-8"?>
<svg id="Layer_1" xmlns="http://www.w3.org/2000/svg" version="1.1" viewBox="0 0 230.67 61.68">
  <!-- Generator: Adobe Illustrator 29.1.0, SVG Export Plug-In . SVG Version: 2.1.0 Build 142)  -->
  <defs>
    <style>
      .st0 {
        fill: #231f20;
      }
    </style>
  </defs>
  <g>
    <path class="st0" d="M16.16.05h10.07v60.9h-10.07v-25.74h-6.09v25.74H0V.05h10.07v25.42h6.09V.05Z"/>
    <path class="st0" d="M46.04.05h10.15v48.96c0,3.74-1.22,6.78-3.65,9.13-2.44,2.35-5.6,3.53-9.5,3.53s-7.08-1.18-9.54-3.53c-2.46-2.35-3.69-5.4-3.69-9.13V.05h10.15v48.96c0,1.03.28,1.83.85,2.4s1.31.85,2.23.85,1.65-.28,2.19-.85c.54-.57.81-1.37.81-2.4V.05Z"/>
    <path class="st0" d="M82.5.05h10.8v60.9h-8.77V28.06l-5.6,32.89h-4.71l-5.68-33.29v33.29h-8.77V.05h10.96l5.85,34.35L82.5.05Z"/>
    <path class="st0" d="M113.68,60.95l-.73-9.18h-6.41l-.81,9.18h-10.23L103.53.05h12.75l8.04,60.9h-10.64ZM107.18,43.57h5.03l-2.44-29.64-2.6,29.64Z"/>
    <path class="st0" d="M144.78.05h8.77v60.9h-8.28l-9.99-34.83v34.83h-8.77V.05h8.28l9.99,34.67V.05Z"/>
    <path class="st0" d="M167.51.05v60.9h-10.07V.05h10.07Z"/>
    <path class="st0" d="M181.48,60.95h-10.07V.05h20.14v9.42h-10.07v18.35h8.44v9.42h-8.44v23.71Z"/>
    <path class="st0" d="M220.78.05l-9.01,40.52v20.38h-10.07v-20.06L192.68.05h10.31l3.9,24.85L210.71.05h10.07Z"/>
  </g>
  <g>
    <path class="st0" d="M226.58,0c-2.26,0-4.09,1.83-4.09,4.09s1.83,4.09,4.09,4.09,4.09-1.83,4.09-4.09-1.83-4.09-4.09-4.09ZM226.58,7.53c-1.9,0-3.44-1.54-3.44-3.44s1.54-3.44,3.44-3.44,3.44,1.54,3.44,3.44-1.54,3.44-3.44,3.44Z"/>
    <path class="st0" d="M225.06,6.19V1.99h1.86c.37,0,.66.04.85.11.2.08.35.21.47.4s.17.4.17.63c0,.3-.1.55-.29.75s-.49.33-.89.39c.15.07.26.14.34.21.16.15.32.34.46.56l.73,1.14h-.7l-.56-.87c-.16-.25-.3-.45-.4-.58-.11-.13-.2-.23-.28-.28-.08-.05-.17-.09-.25-.11-.06-.01-.17-.02-.31-.02h-.65v1.87h-.56ZM225.61,3.84h1.2c.25,0,.45-.03.6-.08s.25-.14.33-.25.11-.24.11-.38c0-.2-.07-.36-.22-.49-.14-.13-.37-.19-.68-.19h-1.33v1.39Z"/>
  </g>
</svg>