<?xml version="1.0" encoding="UTF-8"?>
<svg id="Layer_1" xmlns="http://www.w3.org/2000/svg" version="1.1" viewBox="0 0 3000 802.1">
  <!-- Generator: Adobe Illustrator 29.1.0, SVG Export Plug-In . SVG Version: 2.1.0 Build 142)  -->
  <defs>
    <style>
      .st0 {
        fill: #231f20;
      }
    </style>
  </defs>
  <g>
    <path class="st0" d="M210.2.7h131v792h-131v-334.8h-79.2v334.8H0V.7h131v330.6h79.2V.7Z"/>
    <path class="st0" d="M598.8.7h132v636.8c0,48.6-15.9,88.2-47.5,118.7-31.7,30.6-72.8,45.9-123.6,45.9s-92.1-15.3-124.1-45.9c-32-30.6-48-70.2-48-118.7V.7h132v636.8c0,13.4,3.6,23.8,11.1,31.2,7.4,7.4,17,11.1,29,11.1s21.5-3.6,28.5-11.1c7-7.4,10.5-17.8,10.5-31.2,0,0,0-636.8,0-636.8Z"/>
    <path class="st0" d="M1073,.7h140.5v792h-114.1v-427.8l-72.8,427.8h-61.3l-73.9-433v433h-114.1V.7h142.5l76.1,446.7L1073,.7Z"/>
    <path class="st0" d="M1478.5,792.7l-9.5-119.4h-83.4l-10.5,119.4h-133L1346.5.7h165.8l104.6,792h-138.4ZM1393.9,566.7h65.4l-31.7-385.5-33.8,385.5h.1Z"/>
    <path class="st0" d="M1882.9.7h114.1v792h-107.7l-129.9-453v453h-114.1V.7h107.7l129.9,450.9V.7Z"/>
    <path class="st0" d="M2178.6.7v792h-131V.7h131,0Z"/>
    <path class="st0" d="M2360.3,792.7h-131V.7h261.9v122.5h-131v238.7h109.8v122.5h-109.8v308.4h0Z"/>
    <path class="st0" d="M2871.4.7l-117.2,527v265.1h-131v-260.9L2505.9.7h134.1l50.7,323.2L2740.4.7h131Z"/>
  </g>
  <g>
    <path class="st0" d="M2946.8,0c-29.4,0-53.2,23.8-53.2,53.2s23.8,53.2,53.2,53.2,53.2-23.8,53.2-53.2-23.8-53.2-53.2-53.2ZM2946.8,97.9c-24.7,0-44.7-20-44.7-44.7s20-44.7,44.7-44.7,44.7,20,44.7,44.7-20,44.7-44.7,44.7Z"/>
    <path class="st0" d="M2927,80.5V25.9h24.2c4.8,0,8.6.5,11.1,1.4,2.6,1,4.6,2.7,6.1,5.2,1.6,2.5,2.2,5.2,2.2,8.2s-1.3,7.2-3.8,9.8c-2.5,2.6-6.4,4.3-11.6,5.1,2,.9,3.4,1.8,4.4,2.7,2.1,2,4.2,4.4,6,7.3l9.5,14.8h-9.1l-7.3-11.3c-2.1-3.3-3.9-5.9-5.2-7.5-1.4-1.7-2.6-3-3.6-3.6-1-.7-2.2-1.2-3.3-1.4-.8-.1-2.2-.3-4-.3h-8.5v24.3h-7.3.1ZM2934.2,49.9h15.6c3.3,0,5.9-.4,7.8-1,2-.7,3.3-1.8,4.3-3.3s1.4-3.1,1.4-4.9c0-2.6-.9-4.7-2.9-6.4-1.8-1.7-4.8-2.5-8.8-2.5h-17.3v18.1h-.1Z"/>
  </g>
</svg>