<?xml version="1.0" encoding="UTF-8"?>
<svg id="Layer_1" xmlns="http://www.w3.org/2000/svg" version="1.1" viewBox="0 0 100 50">
  <!-- Generator: Adobe Illustrator 29.1.0, SVG Export Plug-In . SVG Version: 2.1.0 Build 142)  -->
  <defs>
    <style>
      .st0 {
        fill: #fff;
      }
    </style>
  </defs>
  <path class="st0" d="M66.24,36.3c-.68,0-.77.6-.77,1.21v4.98c0,.59.05,1.21.77,1.21s.79-.63.79-1.21v-4.98c0-.61-.08-1.21-.79-1.21Z"/>
  <path class="st0" d="M50,0L0,50h100L50,0ZM29.19,45.18h-1.51l-.13-.86c-.28.59-.77,1.01-1.67,1.01-2.15,0-2.83-1.44-2.83-3.58v-3.47c0-2.2.74-3.59,3.1-3.59s3.03,1.23,3.03,3.03v.66h-2.24v-.84c0-.65-.05-1.24-.77-1.24s-.79.68-.79,1.3v4.79c0,.7.15,1.32.86,1.32s.89-.64.89-1.34v-1.21h-.93v-1.34h2.99v5.36ZM36.71,41.92c0,2.13-.79,3.41-3.13,3.41s-3.1-1.28-3.1-3.41v-3.84c0-2.13.78-3.38,3.1-3.38s3.13,1.25,3.13,3.38v3.84ZM46.14,36.53h-1.55v8.65h-2.3v-8.65h-1.56v-1.7h5.4v1.7ZM53.04,41.92c0,2.13-.79,3.41-3.13,3.41s-3.1-1.28-3.1-3.41v-3.84c0-2.13.78-3.38,3.1-3.38s3.13,1.25,3.13,3.38v3.84ZM62.48,36.53h-1.55v8.65h-2.3v-8.65h-1.56v-1.7h5.4v1.7ZM69.37,41.92c0,2.13-.79,3.41-3.13,3.41s-3.1-1.28-3.1-3.41v-3.84c0-2.13.78-3.38,3.1-3.38s3.13,1.25,3.13,3.38v3.84ZM73.97,40.78h-.92v4.39h-2.29v-10.34h3.47c1.85,0,2.72,1.09,2.72,3,0,2.39-1.32,2.95-2.99,2.95Z"/>
  <path class="st0" d="M49.91,36.3c-.68,0-.77.6-.77,1.21v4.98c0,.59.05,1.21.77,1.21s.79-.63.79-1.21v-4.98c0-.61-.08-1.21-.79-1.21Z"/>
  <path class="st0" d="M73.8,36.44h-.75v2.75h.77c.84,0,1-.45,1-1.39,0-.78-.09-1.35-1.01-1.35Z"/>
  <path class="st0" d="M33.58,36.3c-.68,0-.77.6-.77,1.21v4.98c0,.59.05,1.21.77,1.21s.79-.63.79-1.21v-4.98c0-.61-.08-1.21-.79-1.21Z"/>
</svg>